<?xml version="1.0" encoding="utf-8"?>
<svg version="1.1" xmlns="http://www.w3.org/2000/svg" xmlns:xlink="http://www.w3.org/1999/xlink" x="0px" y="0px"  viewBox="0 0 500 500" style="enable-background:new 0 0 500 500;" xml:space="preserve">
<style type="text/css">
	.st8{fill:#FFFFFF;}
</style>
<g id="all_icon_monochrome">
	<g>
		<path class="st8" d="M273.3,364.9c-2.1-8.4-13-17.5-22.3-17.5c-7.5,0-16.5,5.9-20.9,12.5c-30.8,6.5-53.9,33.9-53.9,66.6
			c0,8.5,1.6,16.6,4.4,24.1c0,0,0,0,0,0c-0.1,10.3,14.4,39.8,54.7,43.9c42,4.3,66.2-22.3,67.9-34c0,0,0,0,0,0
			c5.8-10,9.1-21.6,9.1-34C312.3,399.2,296.3,375.8,273.3,364.9z M293.6,457c-13,0.4-34.9,5.6-36.6,4.2c-2.5-2-13.9-13.9-19.9-13.4
			c-6,0.5-21.9,9-29.9,9c-3.9,0-10.5-3.8-16.1-6.5c-3.3-7.3-5.1-15.3-5.1-23.8c0-26.4,17.7-48.7,41.8-55.8
			c2.7,6.7,14.1,9.2,23.1,9.2c7,0,15-1.5,19.4-5.3c19,9.6,32,29.2,32,51.9C302.3,437.6,299.1,448.1,293.6,457z"/>
		<path class="st8" d="M75.6,225.7c0-1.5,0-2.9,0.1-4.4c-18.1,1-36.7-3-53.5-12.8c-0.9-0.5-1.8-1.1-2.7-1.6
			c-0.5,6.2-0.8,12.4-0.8,18.7c0,90,52.7,167.7,129,204c0-1.1-0.1-2.1-0.1-3.2c0-19.5,5.8-37.7,15.8-52.9
			C111.2,345,75.6,289.5,75.6,225.7z"/>
		<path class="st8" d="M354.7,28.8C322.1,10.5,284.5,0,244.4,0c-47.8,0-92.1,14.9-128.6,40.3c0.9,0.5,1.8,1,2.7,1.5
			c16.9,9.8,29.7,23.9,37.9,40.2c25.5-15.6,55.5-24.6,87.6-24.6c25.4,0,49.5,5.6,71.1,15.7C323.9,55.6,337.3,40.2,354.7,28.8z"/>
		<path class="st8" d="M411.6,240.8c-5.1,57.4-39,106.5-87.2,132.7c10,15.2,15.8,33.4,15.8,52.9c0,1.2,0,2.4-0.1,3.6
			c75.9-35.6,128.7-112.3,129.9-201.4C451.4,238,431.2,241.9,411.6,240.8z"/>
		<path class="st8" d="M75.1,204.5c9.6-0.8,46.9-32,54.4-45.3c9.7-14.5,23.1-57.4,9.1-77.3c-8.8-12.5-37.3-27-64-31.8
			C48,45.3,15.8,73.6,9.8,83.9c-6,10.3-16.7,31.8-3.6,82.8C19.4,217.7,65.6,205.3,75.1,204.5z M46.8,156.8
			c0.4-4.8,23.4-28.6,18.3-41c-7.6-18.3,31.2-20.3,34.6-22.3c10.3-5.8,19.1,1.4,25.6,12.3c5.5,15.5,4.4,33.1-4.4,48.4
			c-10.4,17.9-29.7,29.1-50.4,29.1c-3.8,0-7.7-0.4-11.4-1.1C48.6,173.5,46.6,159.3,46.8,156.8z"/>
		<path class="st8" d="M113.5,157.7c7.6-8.4,7.9-18.9,4.1-22.3c-1.9-1.7-8.8-0.7-11.4,2.7c-2.6,3.4-2.7,7.6-5.1,10.2
			c-2.5,2.8-5.5,2.2-8.7,5.2c-3,2.8-4.3,10.9-2.4,12.6C93.8,169.4,107.7,164.1,113.5,157.7z"/>
		<ellipse transform="matrix(-0.5 -0.866 0.866 -0.5 519.1298 719.8651)" class="st8" cx="467.4" cy="210.1" rx="7.7" ry="21.6"/>
		<ellipse transform="matrix(-0.866 0.5 -0.5 -0.866 709.8486 -109.0053)" class="st8" cx="369.5" cy="40.6" rx="21.6" ry="7.7"/>
		<path class="st8" d="M459.1,54.7c-39.1-22.6-89-9.2-111.6,29.9c-22.6,39.1-9.2,89,29.9,111.6c39.1,22.6,89,9.2,111.6-29.9
			C511.6,127.2,498.2,77.2,459.1,54.7z M384,182.8c-3.7-2.2-7.1-4.7-10.2-7.4l-0.2-0.2l-0.1-0.2l-20.7-35.8l0-0.2
			c-0.9-4.2-1.3-8.4-1.4-12.6l-0.1-5.8l37.6,65.1L384,182.8z M412.9,192.1c-2.1-0.2-4.3-0.4-6.4-0.8l-0.7-0.1l-50.7-87.8l0.2-0.7
			c0.7-2,1.6-4,2.5-5.9l1.2-2.6l56.6,98.1L412.9,192.1z M435.3,190.1c-1.7,0.4-3.4,0.8-5.2,1.1l-1,0.2L366.5,83.2l0.7-0.8
			c1.2-1.5,2.4-2.8,3.6-4l1.4-1.4l65,112.6L435.3,190.1z M454.1,181.9c-1.4,0.9-2.9,1.8-4.4,2.6l-1.3,0.7l-0.7-1.2l-66-114.4
			l1.2-0.8c1.4-0.9,2.9-1.7,4.4-2.5l1.3-0.7l66.7,115.6L454.1,181.9z M469.7,168.2c-1.2,1.5-2.4,2.8-3.6,4l-1.4,1.4L399.8,61.2
			l1.9-0.5c1.8-0.5,3.5-0.8,5.2-1.1l1-0.2l62.4,108L469.7,168.2z M481.3,147.7c-0.7,2-1.5,4-2.4,6l-1.2,2.6l-56.4-97.6l2.9,0.3
			c2.1,0.2,4.3,0.5,6.4,0.9l0.7,0.1l50.3,87.2L481.3,147.7z M448.3,65.4l5,3.1c3.7,2.3,7.3,5,10.4,7.9l0.2,0.2l0.1,0.2l19.4,33.6
			l0.1,0.2c1,4.3,1.5,8.7,1.7,13.1l0.2,5.9L448.3,65.4z"/>
		<circle class="st8" cx="213.6" cy="406.2" r="5.7"/>
		<circle class="st8" cx="283.3" cy="407.6" r="5.7"/>
		<circle class="st8" cx="104.9" cy="106.2" r="5.7"/>
		<circle class="st8" cx="68.9" cy="165.9" r="5.7"/>
	</g>
</g>
</svg>
