<?xml version="1.0" encoding="utf-8"?>
<!-- Generator: Adobe Illustrator 18.1.1, SVG Export Plug-In . SVG Version: 6.00 Build 0)  -->
<svg version="1.1" xmlns="http://www.w3.org/2000/svg" xmlns:xlink="http://www.w3.org/1999/xlink" x="0px" y="0px" width="502.5px"
	 height="497px" viewBox="0 0 502.5 497" style="enable-background:new 0 0 502.5 497;" xml:space="preserve">
<style type="text/css">
	.st0{fill:#9D4C0F;}
	.st1{fill:none;stroke:#0E0F0E;stroke-miterlimit:10;}
	.st2{fill:none;stroke:#000000;stroke-miterlimit:10;}
	.st3{fill:#DCC094;}
	.st4{fill:#FF8F14;}
	.st5{fill:#A62F01;}
	.st6{fill:#DCC094;stroke:#DCC094;stroke-miterlimit:10;}
	.st7{fill:#0E0F0E;}
	.st8{fill:#FFFFFF;}
	.st9{fill:#761602;}
</style>
<g id="circle_background">
	<g>
		<path class="st0" d="M148.3,428.1c0-19.6,5.8-37.9,15.9-53.1C111.6,346.4,76,290.6,76,226.6c0-1.5,0-2.9,0.1-4.4
			c-18.2,1-36.8-3-53.7-12.8c-0.9-0.5-1.8-1.1-2.7-1.6c-0.5,6.2-0.8,12.5-0.8,18.8c0,90.4,52.9,168.4,129.5,204.8
			C148.3,430.3,148.3,429.2,148.3,428.1z"/>
		<path class="st0" d="M119,41.9c17,9.8,29.9,24,38,40.3c25.6-15.6,55.7-24.7,87.9-24.7c25.5,0,49.7,5.7,71.4,15.8
			c8.9-17.6,22.4-33,39.9-44.5C323.4,10.5,285.6,0,245.4,0c-48,0-92.5,14.9-129.2,40.4C117.1,40.9,118.1,41.4,119,41.9z"/>
		<path class="st0" d="M413.2,241.8c-5.1,57.6-39.2,106.9-87.5,133.3c10,15.2,15.9,33.5,15.9,53.1c0,1.2,0,2.4-0.1,3.6
			C417.8,396,470.8,319,471.9,229.5C453.2,239,433,242.9,413.2,241.8z"/>
	</g>
</g>
<g id="icon_female">
	<circle class="st3" cx="70.9" cy="125.7" r="68.4"/>
	<path class="st4" d="M109.6,182c5.2-2.3-24.6,22.6-34.2,23.4s-56,13.2-69.1-38S3.9,94.7,9.9,84.3s38.4-38.8,65.1-34
		s55.4,19.4,64.2,31.9c14.9,21.2-0.9,70.7-2.2,57.2c-1.7-17.3-16.5-57.2-36.9-45.6c-3.4,1.9-42.4,4-34.8,22.4
		c5.1,12.5-18,36.4-18.4,41.2C46.6,162.2,53.6,207.2,109.6,182z"/>
	<path class="st5" d="M120,138c3.8,3.5,3.6,13.9-4.1,22.4c-5.8,6.4-19.8,11.8-23.6,8.3c-1.9-1.7-0.6-9.8,2.5-12.6
		c3.2-2.9,6.2-2.4,8.7-5.2c2.3-2.6,2.5-6.8,5.1-10.2C111.2,137.3,118.1,136.3,120,138z"/>
</g>
<g id="icon_male">
	<circle class="st6" cx="245.2" cy="428.1" r="68.4"/>
	<path class="st7" d="M181.2,452.4c-0.1,10.3,14.4,40,54.9,44.1c42.1,4.3,66.5-22.4,68.2-34.1c1.3-9.3-43.8,2.7-46.3,0.7
		c-2.5-2-14-14-20-13.5s-22,9-30,9S181.3,442.8,181.2,452.4z"/>
	<path class="st7" d="M274.8,369.1c0,9-12.4,12.3-22.8,12.3c-10.4,0-23.8-3.3-23.8-12.3s13.4-20.3,23.8-20.3
		C262.3,348.7,274.8,360,274.8,369.1z"/>
</g>
<g id="icon_grill">
	<g>
		<circle class="st1" cx="420" cy="125.9" r="82"/>
		<circle class="st7" cx="420" cy="125.9" r="82"/>
		<g>
			<ellipse transform="matrix(-0.5 -0.866 0.866 -0.5 521.2367 722.7824)" class="st0" cx="469.3" cy="210.9" rx="7.8" ry="21.7"/>
			<ellipse transform="matrix(-0.5 -0.866 0.866 -0.5 521.2367 382.463)" class="st0" cx="371" cy="40.8" rx="7.8" ry="21.7"/>
		</g>
		<g>
			<path class="st8" d="M479.5,153.6c0.9-1.9,1.7-3.9,2.4-5.9L432,61.4c-2.1-0.4-4.2-0.7-6.3-0.9L479.5,153.6z"/>
			<path class="st8" d="M455.1,181.4L389.5,67.8c-1.5,0.8-2.9,1.6-4.3,2.5l65.6,113.6C452.2,183.1,453.7,182.3,455.1,181.4z"/>
			<path class="st8" d="M464.6,77.8c-3.1-2.9-6.5-5.5-10.3-7.8l31.3,54.1c-0.1-4.3-0.7-8.6-1.6-12.8L464.6,77.8z"/>
			<path class="st8" d="M408.4,190.6c2.1,0.4,4.2,0.6,6.2,0.8l-54-93.5c-0.9,1.9-1.7,3.8-2.4,5.8L408.4,190.6z"/>
			<path class="st8" d="M376.3,175c3,2.7,6.4,5.1,10,7.3l-32-55.4c0.1,4.2,0.5,8.3,1.4,12.4L376.3,175z"/>
			<path class="st8" d="M466.9,171.8c1.2-1.2,2.4-2.6,3.5-3.9L408.8,61.3c-1.7,0.3-3.4,0.7-5.1,1.1L466.9,171.8z"/>
			<path class="st8" d="M431.5,190.5c1.7-0.3,3.4-0.7,5.1-1.1L373.3,79.8c-1.2,1.2-2.4,2.5-3.5,3.9L431.5,190.5z"/>
		</g>
	</g>
</g>
<g id="all_icon_monochrome">
	<g>
		<circle cx="208.6" cy="408.4" r="5.7"/>
		<circle cx="278.5" cy="409.8" r="5.7"/>
	</g>
	<g>
		<circle cx="99.5" cy="107.3" r="5.7"/>
		<circle cx="63.3" cy="167.1" r="5.7"/>
	</g>
</g>
</svg>
