<?xml version="1.0" encoding="utf-8"?>
<!-- Generator: Adobe Illustrator 18.1.1, SVG Export Plug-In . SVG Version: 6.00 Build 0)  -->
<svg version="1.1" xmlns="http://www.w3.org/2000/svg" xmlns:xlink="http://www.w3.org/1999/xlink" x="0px" y="0px" width="502.5px"
	 height="497px" viewBox="0 0 502.5 497" style="enable-background:new 0 0 502.5 497;" xml:space="preserve">
<style type="text/css">
	.st0{fill:#9D4C0F;}
	.st1{fill:none;stroke:#0E0F0E;stroke-miterlimit:10;}
	.st2{fill:#DCC094;}
	.st3{fill:#FF8F14;}
	.st4{fill:#A62F01;}
	.st5{fill:#DCC094;stroke:#DCC094;stroke-miterlimit:10;}
	.st6{fill:#0E0F0E;}
	.st7{fill:#FFFFFF;}
	.st8{fill:#761602;}
</style>
<g id="circle_background">
</g>
<g id="icon_female">
</g>
<g id="icon_male">
</g>
<g id="icon_grill">
</g>
<g id="all_icon_monochrome">
	<g>
		<path class="st8" d="M274.8,366.3c-2.1-8.4-13.1-17.6-22.4-17.6c-7.5,0-16.5,5.9-21,12.5c-30.9,6.5-54.1,34-54.1,66.9
			c0,8.5,1.6,16.7,4.4,24.2c0,0,0,0,0,0c-0.1,10.3,14.4,40,54.9,44.1c42.1,4.3,66.5-22.4,68.2-34.1c0,0,0,0,0,0
			c5.8-10.1,9.2-21.7,9.2-34.2C314,400.8,298,377.3,274.8,366.3z M295.3,458.8c-13.1,0.4-35,5.6-36.7,4.3c-2.5-2-14-14-20-13.5
			s-22,9-30,9c-3.9,0-10.5-3.8-16.1-6.6c-3.3-7.3-5.1-15.4-5.1-23.9c0-26.5,17.7-48.9,41.9-56c2.7,6.7,14.1,9.3,23.2,9.3
			c7.1,0,15.1-1.5,19.5-5.4c19,9.6,32.1,29.4,32.1,52.1C304,439.4,300.8,449.9,295.3,458.8z"/>
		<path class="st4" d="M76.4,226.6c0-1.5,0-2.9,0.1-4.4c-18.2,1-36.8-3-53.7-12.8c-0.9-0.5-1.8-1.1-2.7-1.6
			c-0.5,6.2-0.8,12.5-0.8,18.8c0,90.4,52.9,168.4,129.5,204.8c0-1.1-0.1-2.1-0.1-3.2c0-19.6,5.8-37.9,15.9-53.1
			C112.1,346.4,76.4,290.6,76.4,226.6z"/>
		<path class="st4" d="M356.6,28.9C323.9,10.5,286.1,0,245.8,0c-48,0-92.5,14.9-129.2,40.4c0.9,0.5,1.8,1,2.7,1.5
			c17,9.8,29.9,24,38,40.3c25.6-15.6,55.7-24.7,87.9-24.7c25.5,0,49.7,5.7,71.4,15.8C325.7,55.8,339.1,40.3,356.6,28.9z"/>
		<path class="st4" d="M413.7,241.8c-5.1,57.6-39.2,106.9-87.5,133.3c10,15.2,15.9,33.5,15.9,53.1c0,1.2,0,2.4-0.1,3.6
			C418.2,396,471.2,319,472.4,229.5C453.7,239,433.4,242.9,413.7,241.8z"/>
		<path class="st8" d="M75.9,205.4c9.6-0.8,39.4-25.7,34.2-23.4c0,0,0,0,0,0c8.1-5.6,15.2-13,20.5-22.1c3.4-6,5.9-12.2,7.4-18.6
			c2.7,6,15.8-39,1.8-59c-8.8-12.5-37.4-27.2-64.2-31.9c-26.8-4.8-59.1,23.6-65.1,34c-6,10.4-16.8,32-3.6,83.1
			C19.9,218.5,66.3,206.2,75.9,205.4z M47.5,157.4c0.4-4.8,23.5-28.7,18.4-41.2c-7.6-18.4,31.3-20.4,34.8-22.4
			c10.3-5.9,19.2,1.5,25.7,12.4c5.5,15.5,4.4,33.3-4.4,48.6c-10.4,18-29.8,29.2-50.6,29.2c-3.9,0-7.7-0.4-11.5-1.2
			C49.2,174.2,47.3,160,47.5,157.4z"/>
		<path class="st8" d="M114.4,158.4c7.6-8.5,7.9-18.9,4.1-22.4c-1.9-1.7-8.8-0.7-11.4,2.7s-2.8,7.6-5.1,10.2
			c-2.5,2.8-5.5,2.2-8.7,5.2c-3,2.8-4.3,10.9-2.5,12.6C94.6,170.1,108.6,164.8,114.4,158.4z"/>
		<ellipse transform="matrix(-0.5 -0.866 0.866 -0.5 521.9163 723.1597)" class="st8" cx="469.7" cy="210.9" rx="7.8" ry="21.7"/>
		<ellipse transform="matrix(-0.866 0.5 -0.5 -0.866 713.5611 -109.6878)" class="st8" cx="371.5" cy="40.8" rx="21.7" ry="7.8"/>
		<path class="st8" d="M461.4,54.9c-39.2-22.7-89.4-9.2-112.1,30c-22.7,39.2-9.2,89.4,30,112.1c39.2,22.7,89.4,9.2,112.1-30
			C514.1,127.7,500.7,77.5,461.4,54.9z M376.8,175l-20.6-35.7c-0.8-4.1-1.3-8.2-1.4-12.4l32,55.4C383.2,180.1,379.8,177.7,376.8,175
			z M408.9,190.5l-50.2-86.9c0.7-2,1.5-3.9,2.4-5.8l54,93.5C413,191.2,411,190.9,408.9,190.5z M432,190.5L370.3,83.6
			c1.1-1.3,2.3-2.7,3.5-3.9l63.3,109.7C435.4,189.8,433.7,190.2,432,190.5z M451.2,183.9L385.6,70.3c1.4-0.9,2.9-1.7,4.3-2.5
			l65.6,113.6C454.1,182.3,452.7,183.1,451.2,183.9z M467.4,171.8L404.2,62.4c1.7-0.4,3.4-0.8,5.1-1.1l61.6,106.6
			C469.7,169.3,468.6,170.6,467.4,171.8z M479.9,153.6l-53.7-93c2.1,0.2,4.2,0.5,6.3,0.9l49.8,86.3
			C481.6,149.7,480.8,151.7,479.9,153.6z M454.8,70c3.7,2.3,7.2,4.9,10.3,7.8l19.4,33.5c1,4.2,1.5,8.5,1.6,12.8L454.8,70z"/>
	</g>
</g>
</svg>
