<?xml version="1.0" encoding="utf-8"?>
<!-- Generator: Adobe Illustrator 18.1.1, SVG Export Plug-In . SVG Version: 6.00 Build 0)  -->
<svg version="1.1" xmlns="http://www.w3.org/2000/svg" xmlns:xlink="http://www.w3.org/1999/xlink" x="0px" y="0px" width="502.5px"
	 height="497px" viewBox="0 0 502.5 497" style="enable-background:new 0 0 502.5 497;" xml:space="preserve">
<style type="text/css">
	.st0{fill:#9D4C0F;}
	.st1{fill:none;stroke:#0E0F0E;stroke-miterlimit:10;}
	.st2{fill:#DCC094;}
	.st3{fill:#FF8F14;}
	.st4{fill:#A62F01;}
	.st5{fill:#DCC094;stroke:#DCC094;stroke-miterlimit:10;}
	.st6{fill:#0E0F0E;}
	.st7{fill:#FFFFFF;}
	.st8{fill:#761602;}
</style>
<g id="circle_background">
</g>
<g id="icon_female">
</g>
<g id="icon_male">
</g>
<g id="icon_grill">
</g>
<g id="all_icon_monochrome">
	<g>
		<path d="M274.4,366.3c-2.1-8.4-13.1-17.6-22.4-17.6c-7.5,0-16.5,5.9-21,12.5c-30.9,6.5-54.1,34-54.1,66.9c0,8.5,1.6,16.7,4.4,24.2
			c0,0,0,0,0,0c-0.1,10.3,14.4,40,54.9,44.1c42.1,4.3,66.5-22.4,68.2-34.1c0,0,0,0,0,0c5.8-10.1,9.2-21.7,9.2-34.2
			C313.5,400.8,297.5,377.3,274.4,366.3z M294.8,458.8c-13.1,0.4-35,5.6-36.7,4.3c-2.5-2-14-14-20-13.5s-22,9-30,9
			c-3.9,0-10.5-3.8-16.1-6.6c-3.3-7.3-5.1-15.4-5.1-23.9c0-26.5,17.7-48.9,41.9-56c2.7,6.7,14.1,9.3,23.2,9.3
			c7.1,0,15.1-1.5,19.5-5.4c19,9.6,32.1,29.4,32.1,52.1C303.5,439.4,300.3,449.9,294.8,458.8z"/>
		<path d="M76,226.6c0-1.5,0-2.9,0.1-4.4c-18.2,1-36.8-3-53.7-12.8c-0.9-0.5-1.8-1.1-2.7-1.6c-0.5,6.2-0.8,12.5-0.8,18.8
			c0,90.4,52.9,168.4,129.5,204.8c0-1.1-0.1-2.1-0.1-3.2c0-19.6,5.8-37.9,15.9-53.1C111.6,346.4,76,290.6,76,226.6z"/>
		<path d="M356.2,28.9C323.4,10.5,285.6,0,245.4,0c-48,0-92.5,14.9-129.2,40.4c0.9,0.5,1.8,1,2.7,1.5c17,9.8,29.9,24,38,40.3
			c25.6-15.6,55.7-24.7,87.9-24.7c25.5,0,49.7,5.7,71.4,15.8C325.2,55.8,338.7,40.3,356.2,28.9z"/>
		<path d="M413.2,241.8c-5.1,57.6-39.2,106.9-87.5,133.3c10,15.2,15.9,33.5,15.9,53.1c0,1.2,0,2.4-0.1,3.6
			C417.8,396,470.8,319,471.9,229.5C453.2,239,433,242.9,413.2,241.8z"/>
		<path d="M75.4,205.4c9.6-0.8,39.4-25.7,34.2-23.4c0,0,0,0,0,0c8.1-5.6,15.2-13,20.5-22.1c3.4-6,5.9-12.2,7.4-18.6
			c2.7,6,15.8-39,1.8-59c-8.8-12.5-37.4-27.2-64.2-31.9c-26.8-4.8-59.1,23.6-65.1,34c-6,10.4-16.8,32-3.6,83.1
			C19.5,218.6,65.8,206.2,75.4,205.4z M47,157.4c0.4-4.8,23.5-28.7,18.4-41.2c-7.6-18.4,31.3-20.4,34.8-22.4
			c10.3-5.9,19.2,1.5,25.7,12.4c5.5,15.5,4.4,33.3-4.4,48.6C111,172.8,91.6,184,70.8,184c-3.9,0-7.7-0.4-11.5-1.2
			C48.8,174.2,46.8,160,47,157.4z"/>
		<path d="M113.9,158.4c7.6-8.5,7.9-18.9,4.1-22.4c-1.9-1.7-8.8-0.7-11.4,2.7s-2.8,7.6-5.1,10.2c-2.5,2.8-5.5,2.2-8.7,5.2
			c-3,2.8-4.3,10.9-2.5,12.6C94.2,170.1,108.1,164.8,113.9,158.4z"/>
		<ellipse transform="matrix(-0.5 -0.866 0.866 -0.5 521.2341 722.7827)" cx="469.3" cy="210.9" rx="7.8" ry="21.7"/>
		<ellipse transform="matrix(-0.866 0.5 -0.5 -0.866 712.7256 -109.4474)" cx="371" cy="40.8" rx="21.7" ry="7.8"/>
		<path d="M461,54.9c-39.2-22.7-89.4-9.2-112.1,30c-22.7,39.2-9.2,89.4,30,112.1c39.2,22.7,89.4,9.2,112.1-30
			C513.7,127.7,500.2,77.5,461,54.9z M376.3,175l-20.6-35.7c-0.8-4.1-1.3-8.2-1.4-12.4l32,55.4C382.7,180.1,379.4,177.7,376.3,175z
			 M408.4,190.6l-50.2-86.9c0.7-2,1.5-3.9,2.4-5.8l54,93.5C412.6,191.2,410.5,190.9,408.4,190.6z M431.5,190.5L369.8,83.6
			c1.1-1.3,2.3-2.7,3.5-3.9l63.3,109.7C434.9,189.9,433.2,190.2,431.5,190.5z M450.8,183.9L385.2,70.3c1.4-0.9,2.9-1.7,4.3-2.5
			l65.6,113.6C453.7,182.3,452.2,183.1,450.8,183.9z M466.9,171.8L403.7,62.4c1.7-0.4,3.4-0.8,5.1-1.1l61.6,106.6
			C469.3,169.3,468.1,170.6,466.9,171.8z M479.5,153.6l-53.7-93c2.1,0.2,4.2,0.5,6.3,0.9l49.8,86.3
			C481.2,149.7,480.4,151.7,479.5,153.6z M454.3,70c3.7,2.3,7.2,4.9,10.3,7.8l19.4,33.5c1,4.2,1.5,8.5,1.6,12.8L454.3,70z"/>
	</g>
</g>
</svg>
